<?xml version="1.0" encoding="UTF-8" standalone="no"?>
<!DOCTYPE svg PUBLIC "-//W3C//DTD SVG 1.1//EN" "http://www.w3.org/Graphics/SVG/1.1/DTD/svg11.dtd">
<svg width="100%" height="100%" viewBox="0 0 290 459" version="1.1" xmlns="http://www.w3.org/2000/svg" xmlns:xlink="http://www.w3.org/1999/xlink" xml:space="preserve" xmlns:serif="http://www.serif.com/" style="fill-rule:evenodd;clip-rule:evenodd;stroke-linejoin:round;stroke-miterlimit:2;">
    <g id="layer5-7" transform="matrix(1,0,0,1,-150.626,-229.584)">
        <g id="path34-1" transform="matrix(1,0,0,0.919713,-25.7584,56.6004)">
            <path d="M353.148,468.504C353.967,468.411 354.918,471.704 357.245,476.967C360.032,483.27 363.052,488.421 369.231,497.931C375.297,507.123 383.159,517.645 391.027,529.633C391.291,530.036 391.554,530.438 391.815,530.84C399.897,543.197 405.804,554.16 408.97,565.956C410.73,572.522 411.178,578.47 410.668,583.665C409.548,594.798 404.738,600.041 403.743,599.543C402.748,599.045 405.332,593.08 404.808,583.496C404.575,578.948 403.582,573.989 401.558,568.232C397.831,557.609 392.106,548.248 384.084,535.874C383.828,535.483 383.571,535.09 383.313,534.697C374.883,521.857 368.7,513.135 362.535,501.976C357.148,492.372 354.213,484.929 352.936,478.294C351.763,472.194 352.33,468.596 353.148,468.504L353.148,468.504Z" style="fill-rule:nonzero;"/>
        </g>
        <path id="path41-1" d="M405.196,378.361L404.956,378.53C408.705,383.039 410.948,389.428 411.147,396.162C411.167,397.05 411.152,397.937 411.101,398.821C415.971,395.506 423.094,392.678 431.013,390.917C431.703,390.773 432.396,390.637 433.091,390.511L433.439,390.29L432.654,389.957L405.46,378.472L405.196,378.361Z" style="fill-rule:nonzero;"/>
        <g id="path27-2" transform="matrix(0.939612,0,0,0.831641,25.429,100.848)">
            <path d="M384.858,402.118C384.006,402.342 382.207,399.023 376.265,396.098C373.704,395.06 369.931,393.67 367.354,394.655C364.445,395.516 361.383,397.357 360.03,400.136C358.824,402.307 358.439,405.205 358.999,408.013C359.555,410.536 360.906,413.059 362.914,414.501C364.813,416.1 367.962,416.593 371.007,416.169C373.436,416.026 375.93,413.732 379.049,411.104C381.685,408.655 384.146,405.894 386.916,402.896C387.74,402.004 388.573,401.111 389.428,400.22C392.929,396.473 396.878,392.736 401.967,389.997C407.12,387.265 413.205,386.891 418.634,389.052C424.788,391.628 429.186,397.124 430.351,403.433L430.351,403.433C431.245,409.584 429.14,415.246 425.728,419.161C421.342,424.161 415.199,425.787 410.147,425.123C394.57,422.469 391.986,411.828 392.915,411.024C393.844,410.219 399.979,419.065 410.701,418.666C413.753,418.699 417.439,417.136 419.519,414.139C421.279,411.661 422.277,408.111 421.522,405.005C421.051,402.124 418.297,399.36 414.937,398.011C412.625,396.978 409.416,397.443 406.696,398.896C403.295,400.669 400.307,403.769 396.85,407.307C396.062,408.138 395.272,408.991 394.465,409.865C391.757,412.801 389.062,415.755 385.953,418.599C382.661,421.878 378.196,424.959 372.41,425.989C366.922,426.784 361.304,425.321 356.948,421.826C353.021,418.434 350.863,413.892 350.281,409.433C349.587,404.539 350.76,399.724 353.233,395.938C356.613,391.055 361.577,388.73 366.046,388.115C371.693,387.467 376.125,389.933 378.71,391.888C386.183,396.838 385.319,401.997 384.858,402.118Z" style="fill-rule:nonzero;"/>
        </g>
        <g id="path31-0" transform="matrix(0.84045,0,0,0.919713,47.1023,23.9996)">
            <path d="M277.453,707.325C277.406,708.976 288.023,710.83 305.276,712.1C323.267,713.425 345.611,713.959 372.589,713.932C374.323,713.93 376.046,713.927 377.756,713.921C427.805,713.751 467.668,711.87 467.717,708.662C467.765,705.454 427.934,702.086 377.756,701.916C376.041,701.911 374.315,701.908 372.577,701.911C347.364,701.933 321.483,702.752 305.366,703.603C288.184,704.509 277.501,705.66 277.453,707.326L277.453,707.325Z" style="fill-rule:nonzero;"/>
        </g>
        <path id="path37-4" d="M353.909,368.813C347.029,371.7 343.827,379.544 346.816,386.19C347.351,387.375 348.064,388.477 348.931,389.462C351.488,386.59 355.914,383.687 360.994,381.55C365.044,379.85 369.215,378.761 372.759,378.477C372.581,377.511 372.293,376.568 371.899,375.664C368.91,369.018 360.789,365.926 353.909,368.813Z" style="fill-rule:nonzero;"/>
        <g id="path29" transform="matrix(1,0,0,0.919713,-25.7584,56.6004)">
            <path d="M330.216,553.533C329.004,555.257 343.785,568.124 364.474,580.645C367.189,582.288 369.859,583.837 372.465,585.289C389.6,594.835 402.719,601.114 403.743,599.543C404.766,597.972 392.955,588.812 376.314,578.682C373.834,577.172 371.168,575.554 368.523,573.953C348.179,561.643 331.458,551.767 330.216,553.533Z" style="fill-rule:nonzero;"/>
        </g>
        <g id="path45" transform="matrix(1,0,0,0.919713,2.14654,57.2585)">
            <path d="M396.66,438.147C395.655,438.19 394.025,444.086 396.75,454.457C397.813,458.415 399.558,462.468 402.066,466.938C406.092,474.209 413.054,485.833 416.83,496.172C422.951,512.551 425.23,531.2 424.884,553.384C424.829,556.11 424.725,558.858 424.565,561.624C423.231,584.779 418.323,605.097 411.157,622.428C403.481,640.76 394.494,652.913 386.339,661.313C378.548,669.339 372.875,672.953 373.386,673.917C373.898,674.88 380.702,673.003 390.258,665.767C400.102,658.313 411.516,645.725 420.471,626.559C429.008,608.488 434.876,586.805 436.268,562.293C436.434,559.363 436.533,556.453 436.568,553.57C436.945,530.408 433.654,510.014 426.071,492.441C420.948,480.768 413.194,469.988 408.238,463.046C405.445,459.114 403.475,455.907 401.998,452.62C398.114,444.104 397.665,438.104 396.66,438.147Z" style="fill-rule:nonzero;"/>
        </g>
    </g>
    <g id="layer6-4" transform="matrix(1,0,0,1,-150.626,-229.584)">
        <rect id="rect24-1" x="241.334" y="383.774" width="47.799" height="245.064"/>
        <path id="path22-8" d="M323.804,318.192C278.258,318.192 241.335,346.108 241.334,380.545C241.415,404.775 260.055,426.777 289.134,436.963L289.134,434.406C284.09,425.273 281.411,415.203 281.304,404.974C281.339,404.445 281.38,403.917 281.429,403.388C283.776,405.199 286.4,406.378 289.134,406.851L289.134,391.595C289.136,379.955 292.588,369.015 298.425,362.144C298.948,361.541 299.486,360.975 300.038,360.445C313.883,346.315 328.819,339.454 348.661,336.847C365.669,334.24 374.103,338.492 379.843,339.454C366.305,322.906 353.475,318.196 323.804,318.192Z" style="fill-rule:nonzero;"/>
        <path id="path22-8-7" d="M206.665,688.583C252.211,688.583 289.134,660.667 289.134,626.231C289.053,602 270.413,579.999 241.335,569.812L241.335,572.369C246.378,581.503 249.057,591.572 249.164,601.801C249.13,602.33 249.088,602.859 249.04,603.387C246.692,601.576 244.068,600.397 241.335,599.924L241.335,615.18C241.332,626.82 237.881,637.76 232.043,644.631C231.521,645.234 230.983,645.801 230.43,646.33C216.586,660.46 201.65,667.321 181.807,669.928C164.799,672.535 156.365,668.283 150.626,667.321C164.164,683.869 176.993,688.58 206.665,688.583L206.665,688.583Z" style="fill-rule:nonzero;"/>
    </g>
    <g id="layer8" transform="matrix(1,0,0,1,-153.662,-220.326)">
        <g id="path42" transform="matrix(1,0,0,1.31901,2.36302e-07,26.6061)">
            <path d="M181.147,247.991L187.775,240.573L194.404,247.991L181.147,247.991Z" style="fill:rgb(108,172,228);fill-rule:nonzero;"/>
        </g>
        <path id="path17-4" d="M270.112,220.326L269.922,220.481L160.574,308.807L160.888,309.674L222.778,314.119C227.918,294.3 252.749,275.325 284.69,266.807C315.442,258.653 346.404,261.892 362.867,274.984L414.279,242.454L415.389,241.752L414.059,241.556L270.362,220.364L270.112,220.326ZM287.263,275.01C257.493,282.908 229.04,305.286 233.334,318.976L240.204,340.879C240.147,320.134 271.176,305.97 294.992,299.652C318.808,293.333 354.762,289.726 365.237,307.708L358.367,285.804C354.073,272.114 317.033,267.112 287.263,275.01Z" style="fill:rgb(108,172,228);fill-rule:nonzero;"/>
        <rect id="rect29" x="184.108" y="309.8" width="7.333" height="44.32" style="fill:rgb(108,172,228);"/>
        <rect id="rect30" x="181.147" y="353.709" width="13.257" height="18.249" style="fill:rgb(108,172,228);"/>
    </g>
</svg>
